<svg width="32" height="32" viewBox="0 0 32 32" fill="none" xmlns="http://www.w3.org/2000/svg">
<path d="M2.90909 32C2.10909 32 1.42424 31.7016 0.854546 31.1048C0.284849 30.5079 0 29.7905 0 28.9524V12.1905H2.90909V28.9524H27.6364V32H2.90909ZM8.72727 25.9048C7.92727 25.9048 7.24242 25.6064 6.67273 25.0095C6.10303 24.4127 5.81818 23.6952 5.81818 22.8571V6.09524H13.0909V3.04762C13.0909 2.20952 13.3758 1.49206 13.9455 0.895238C14.5152 0.298413 15.2 0 16 0H21.8182C22.6182 0 23.303 0.298413 23.8727 0.895238C24.4424 1.49206 24.7273 2.20952 24.7273 3.04762V6.09524H32V22.8571C32 23.6952 31.7152 24.4127 31.1455 25.0095C30.5758 25.6064 29.8909 25.9048 29.0909 25.9048H8.72727ZM8.72727 22.8571H29.0909V9.14286H8.72727V22.8571ZM16 6.09524H21.8182V3.04762H16V6.09524Z" fill="#60A5FA"/>
</svg>
