<svg width="32" height="32" viewBox="0 0 32 32" fill="none" xmlns="http://www.w3.org/2000/svg">
<path d="M5.0495 32V25.12C3.45049 23.7333 2.20916 22.1133 1.3255 20.26C0.441832 18.4067 0 16.4533 0 14.4C0 10.4 1.47277 7 4.41832 4.2C7.36386 1.4 10.9406 0 15.1485 0C18.6551 0 21.762 0.98 24.4691 2.94C27.1762 4.9 28.9365 7.45333 29.75 10.6L31.9381 18.8C32.0784 19.3067 31.9802 19.7667 31.6436 20.18C31.3069 20.5933 30.8581 20.8 30.297 20.8H26.9307V25.6C26.9307 26.48 26.6011 27.2333 25.9418 27.86C25.2826 28.4867 24.4901 28.8 23.5644 28.8H20.198V32H16.8317V25.6H23.5644V17.6H28.1089L26.5099 11.4C25.8647 8.97333 24.4901 7 22.3861 5.48C20.2822 3.96 17.8696 3.2 15.1485 3.2C11.8944 3.2 9.11716 4.28 6.81683 6.44C4.5165 8.6 3.36634 11.2267 3.36634 14.32C3.36634 15.92 3.70998 17.44 4.39728 18.88C5.08457 20.32 6.05941 21.6 7.32178 22.72L8.41584 23.68V32H5.0495ZM13.4653 20.8H16.8317L17.0842 18.8C17.3086 18.72 17.512 18.6267 17.6943 18.52C17.8766 18.4133 18.038 18.2933 18.1782 18.16L20.1139 18.96L21.797 16.24L20.1139 15.04C20.17 14.8267 20.198 14.6133 20.198 14.4C20.198 14.1867 20.17 13.9733 20.1139 13.76L21.797 12.56L20.1139 9.84L18.1782 10.64C18.038 10.5067 17.8766 10.3867 17.6943 10.28C17.512 10.1733 17.3086 10.08 17.0842 10L16.8317 8H13.4653L13.2129 10C12.9884 10.08 12.7851 10.1733 12.6027 10.28C12.4204 10.3867 12.2591 10.5067 12.1188 10.64L10.1832 9.84L8.5 12.56L10.1832 13.76C10.1271 13.9733 10.099 14.1867 10.099 14.4C10.099 14.6133 10.1271 14.8267 10.1832 15.04L8.5 16.24L10.1832 18.96L12.1188 18.16C12.2591 18.2933 12.4204 18.4133 12.6027 18.52C12.7851 18.6267 12.9884 18.72 13.2129 18.8L13.4653 20.8ZM15.1485 16.8C14.4472 16.8 13.8511 16.5667 13.3601 16.1C12.8692 15.6333 12.6238 15.0667 12.6238 14.4C12.6238 13.7333 12.8692 13.1667 13.3601 12.7C13.8511 12.2333 14.4472 12 15.1485 12C15.8498 12 16.446 12.2333 16.9369 12.7C17.4278 13.1667 17.6733 13.7333 17.6733 14.4C17.6733 15.0667 17.4278 15.6333 16.9369 16.1C16.446 16.5667 15.8498 16.8 15.1485 16.8Z" fill="#60A5FA"/>
</svg>
