<svg width="32" height="32" viewBox="0 0 32 32" fill="none" xmlns="http://www.w3.org/2000/svg">
<path d="M3.2 32C2.32 32 1.56667 31.6083 0.94 30.825C0.313333 30.0417 0 29.1 0 28V4C0 2.9 0.313333 1.95833 0.94 1.175C1.56667 0.391667 2.32 0 3.2 0H28.8C29.68 0 30.4333 0.391667 31.06 1.175C31.6867 1.95833 32 2.9 32 4V28C32 29.1 31.6867 30.0417 31.06 30.825C30.4333 31.6083 29.68 32 28.8 32H3.2ZM3.2 28H28.8V8H3.2V28ZM8.8 26L6.56 23.2L10.68 18L6.52 12.8L8.8 10L15.2 18L8.8 26ZM16 26V22H25.6V26H16Z" fill="white"/>
</svg>
